<!-- icon666.com - MILLIONS vector ICONS FREE --><svg id="Layer_1" enable-background="new 0 0 512 512" viewBox="0 0 512 512" xmlns="http://www.w3.org/2000/svg"><path clip-rule="evenodd" d="m233.77 164.004c.575-8.954 8.284-15.763 17.239-15.212 28.347 1.747 54.828 13.973 74.604 34.434 19.824 20.504 31.173 47.492 31.891 75.992.24 8.964-6.847 16.42-15.802 16.654-.144 0-.287.005-.431.005-8.763 0-15.993-6.996-16.233-15.821-1.054-41.65-34.477-76.28-76.04-78.847-8.955-.551-15.755-8.255-15.228-17.205zm202.147 174.597c-14.877-14.881-39.124-14.875-54.001.002l-32.614 32.614-11.438-5.623c-1.227-.603-2.403-1.308-3.516-2.101-20.19-14.394-40.556-28.785-60.197-43.919-14.313-11.029-28.096-22.508-40.883-35.295-12.788-12.789-24.268-26.573-35.297-40.886-15.135-19.642-29.528-40.008-43.923-60.199-.795-1.115-1.506-2.289-2.11-3.519l-5.615-11.434 32.607-32.615c7.231-7.233 11.149-16.775 11.149-27 0-10.228-3.915-19.77-11.149-27.005l-59.396-59.407c-14.884-14.887-39.13-14.884-54.016.001l-29.121 29.12c-20.701 20.702-31.502 48.47-30.84 77.705.668 29.521 12.529 58.226 30.847 81.146 39.94 49.973 80.631 99.744 125.912 145.025 45.284 45.285 95.058 85.981 145.034 125.926 22.999 18.383 51.804 30.307 81.444 30.845.678.012 1.356.018 2.035.018 28.713 0 55.535-11.015 75.841-31.331l28.638-28.653c14.884-14.893 14.89-39.115.002-54.007zm70.555-84.568v-1.016c-2.298-65.995-29.114-128.254-75.561-175.324-45.624-46.237-106.156-73.745-170.76-77.693h-6.651c-7.43 1.181-13.272 7.44-13.648 15.256-.431 8.954 6.464 16.568 15.419 17.004 118.562 5.756 214.618 103.215 218.736 221.877.288 8.772 7.518 15.677 16.185 15.677.191 0 .383-.005.575-.01 8.613-.294 15.453-7.262 15.705-15.771zm-254.266-147.303c80.015 4.18 144.755 70.246 147.34 150.395.24 8.786 7.47 15.72 16.185 15.72.192 0 .383-.005.575-.009 8.954-.288 15.993-7.786 15.658-16.751-1.484-47.248-20.59-91.871-53.726-125.658-33.088-33.735-77.286-53.669-124.356-56.13-9.003-.474-16.616 6.412-17.047 15.371-.479 8.955 6.416 16.597 15.371 17.062z" fill-rule="evenodd"></path></svg>